<svg width="1516" height="1281" viewBox="0 0 1516 1281" fill="none" xmlns="http://www.w3.org/2000/svg">
<path d="M1110.84 1281C1339.43 1271.28 1394.45 1233.96 1409.53 1131.23C1434.51 1105.62 1455.73 1082.66 1472.01 1061.5C1511.27 1010.47 1521.74 969.93 1486.67 928C1470.8 909.03 1445.6 889.77 1409.53 869.13C1413.38 845.66 1408.41 839.53 1391 837C1368 812.44 1354.53 806.1 1328.2 825L1300.5 873.63C1058.69 891.38 937.27 959.96 756.523 1093.79C578.224 949.21 453.913 881.28 222.5 870.15L201 841.5C177.575 813.34 162.735 823.55 137 835.5C116.77 844.89 110.449 853.28 100.587 869.13C63.552 889.07 38.622 908.24 24.049 928C-4.51 966.73 6.70698 1007.76 44.551 1061.5C59.397 1082.58 78.34 1105.61 100.587 1131.23C150.955 1237.57 220.588 1263.86 381.702 1281H1110.84Z" fill="#4BFFA9"/>
<path d="M1110.84 1281C1339.43 1271.28 1394.45 1233.96 1409.53 1131.23C1434.51 1105.62 1455.73 1082.66 1472.01 1061.5C1511.27 1010.47 1521.74 969.93 1486.67 928C1470.8 909.03 1445.6 889.77 1409.53 869.13C1413.38 845.66 1408.41 839.53 1391 837C1368 812.44 1354.53 806.1 1328.2 825L1300.5 873.63C1058.69 891.38 937.27 959.96 756.523 1093.79C578.224 949.21 453.913 881.28 222.5 870.15L201 841.5C177.575 813.34 162.735 823.55 137 835.5C116.77 844.89 110.449 853.28 100.587 869.13C63.552 889.07 38.622 908.24 24.049 928C-4.51 966.73 6.70698 1007.76 44.551 1061.5C59.397 1082.58 78.34 1105.61 100.587 1131.23C150.955 1237.57 220.588 1263.86 381.702 1281H1110.84Z" fill="url(#paint0_radial_303_3)" fill-opacity="0.45"/>
<path d="M1110.84 1281C1339.43 1271.28 1394.45 1233.96 1409.53 1131.23C1434.51 1105.62 1455.73 1082.66 1472.01 1061.5C1511.27 1010.47 1521.74 969.93 1486.67 928C1470.8 909.03 1445.6 889.77 1409.53 869.13C1413.38 845.66 1408.41 839.53 1391 837C1368 812.44 1354.53 806.1 1328.2 825L1300.5 873.63C1058.69 891.38 937.27 959.96 756.523 1093.79C578.224 949.21 453.913 881.28 222.5 870.15L201 841.5C177.575 813.34 162.735 823.55 137 835.5C116.77 844.89 110.449 853.28 100.587 869.13C63.552 889.07 38.622 908.24 24.049 928C-4.51 966.73 6.70698 1007.76 44.551 1061.5C59.397 1082.58 78.34 1105.61 100.587 1131.23C150.955 1237.57 220.588 1263.86 381.702 1281H1110.84Z" fill="url(#paint1_linear_303_3)" fill-opacity="0.2"/>
<path d="M1110.84 1281C1339.43 1271.28 1394.45 1233.96 1409.53 1131.23C1434.51 1105.62 1455.73 1082.66 1472.01 1061.5C1511.27 1010.47 1521.74 969.93 1486.67 928C1470.8 909.03 1445.6 889.77 1409.53 869.13C1413.38 845.66 1408.41 839.53 1391 837C1368 812.44 1354.53 806.1 1328.2 825L1300.5 873.63C1058.69 891.38 937.27 959.96 756.523 1093.79C578.224 949.21 453.913 881.28 222.5 870.15L201 841.5C177.575 813.34 162.735 823.55 137 835.5C116.77 844.89 110.449 853.28 100.587 869.13C63.552 889.07 38.622 908.24 24.049 928C-4.51 966.73 6.70698 1007.76 44.551 1061.5C59.397 1082.58 78.34 1105.61 100.587 1131.23C150.955 1237.57 220.588 1263.86 381.702 1281H1110.84Z" fill="url(#paint2_radial_303_3)" fill-opacity="0.35"/>
<path d="M1110.84 1281C1339.43 1271.28 1394.45 1233.96 1409.53 1131.23C1434.51 1105.62 1455.73 1082.66 1472.01 1061.5C1511.27 1010.47 1521.74 969.93 1486.67 928C1470.8 909.03 1445.6 889.77 1409.53 869.13C1413.38 845.66 1408.41 839.53 1391 837C1368 812.44 1354.53 806.1 1328.2 825L1300.5 873.63M1110.84 1281H381.702C220.588 1263.86 150.955 1237.57 100.587 1131.23C78.34 1105.61 59.397 1082.58 44.551 1061.5C6.70698 1007.76 -4.51 966.73 24.049 928C38.622 908.24 63.552 889.07 100.587 869.13C110.449 853.28 116.77 844.89 137 835.5C162.735 823.55 177.575 813.34 201 841.5L222.5 870.15M1110.84 1281L1114.17 1278.84M1110.84 1281C1111.96 1280.28 1113.07 1279.56 1114.17 1278.84M1328.2 871.85C1318.79 872.38 1309.56 872.97 1300.5 873.63M189.37 868.96C200.657 869.23 211.695 869.63 222.5 870.15M222.5 870.15C453.913 881.28 578.224 949.21 756.523 1093.79C937.27 959.96 1058.69 891.38 1300.5 873.63M1114.17 1278.84L1116.76 1277.17C1115.9 1277.73 1115.04 1278.28 1114.17 1278.84Z" stroke="black" stroke-width="15"/>
<path d="M583 1156.5C588.221 1187.55 589.523 1204.95 583 1236C732.884 1253.94 810.73 1250.32 946 1236C937.86 1204.95 938.23 1187.55 946 1156.5C804.24 1164.88 724.76 1166.09 583 1156.5Z" fill="#8673AD"/>
<path d="M583 1156.5L583.034 1156L582.402 1155.96L582.507 1156.58L583 1156.5ZM583 1236L582.511 1235.9L582.398 1236.43L582.941 1236.5L583 1236ZM946 1236L946.05 1236.5L946.63 1236.44L946.48 1235.87L946 1236ZM946 1156.5L946.49 1156.62L946.65 1155.96L945.97 1156L946 1156.5ZM593.5 1175L593.523 1174.5L592.881 1174.47L593.01 1175.1L593.5 1175ZM933 1175L933.49 1175.12L933.64 1174.47L932.98 1174.5L933 1175ZM933 1231L933.04 1231.5L933.61 1231.46L933.49 1230.9L933 1231ZM593.5 1231L593.005 1230.93L592.93 1231.47L593.474 1231.5L593.5 1231ZM582.507 1156.58C587.722 1187.59 589.017 1204.93 582.511 1235.9L583.489 1236.1C590.03 1204.98 588.72 1187.5 583.493 1156.42L582.507 1156.58ZM582.941 1236.5C732.871 1254.44 810.75 1250.82 946.05 1236.5L945.95 1235.5C810.7 1249.82 732.897 1253.43 583.059 1235.5L582.941 1236.5ZM946.48 1235.87C942.42 1220.37 940.49 1208.31 940.53 1196.25C940.58 1184.2 942.6 1172.13 946.49 1156.62L945.51 1156.38C941.62 1171.92 939.58 1184.08 939.53 1196.25C939.49 1208.42 941.44 1220.58 945.52 1236.13L946.48 1235.87ZM945.97 1156C804.23 1164.38 724.768 1165.59 583.034 1156L582.966 1157C724.752 1166.59 804.25 1165.38 946.03 1157L945.97 1156ZM596.031 1187.44C595.579 1183.46 594.906 1179.36 593.99 1174.9L593.01 1175.1C593.922 1179.53 594.59 1183.61 595.038 1187.56L596.031 1187.44ZM595.748 1217.05C596.259 1212.18 596.586 1207.75 596.701 1203.51L595.701 1203.49C595.587 1207.7 595.263 1212.1 594.754 1216.95L595.748 1217.05ZM593.995 1231.07C594.285 1228.99 594.555 1226.99 594.803 1225.06L593.811 1224.94C593.564 1226.86 593.295 1228.85 593.005 1230.93L593.995 1231.07ZM593.477 1175.5C594.38 1175.54 595.281 1175.58 596.179 1175.62L596.224 1174.62C595.326 1174.58 594.426 1174.54 593.523 1174.5L593.477 1175.5ZM604.978 1176.01C609.201 1176.2 613.366 1176.38 617.479 1176.55L617.521 1175.55C613.408 1175.38 609.244 1175.2 605.022 1175.02L604.978 1176.01ZM629.981 1177.05C634.712 1177.24 639.376 1177.41 643.982 1177.58L644.018 1176.58C639.413 1176.41 634.75 1176.24 630.019 1176.05L629.981 1177.05ZM655.984 1177.99C660.365 1178.13 664.697 1178.27 668.985 1178.39L669.015 1177.39C664.727 1177.27 660.397 1177.13 656.016 1176.99L655.984 1177.99ZM681.987 1178.75C686.019 1178.85 690.018 1178.94 693.989 1179.03L694.011 1178.03C690.041 1177.94 686.043 1177.85 682.013 1177.75L681.987 1178.75ZM704.991 1179.25C708.675 1179.32 712.341 1179.38 715.993 1179.43L716.007 1178.43C712.357 1178.38 708.692 1178.32 705.009 1178.25L704.991 1179.25ZM726.995 1179.57C730.837 1179.61 734.669 1179.64 738.497 1179.66L738.503 1178.66C734.677 1178.64 730.846 1178.61 727.005 1178.57L726.995 1179.57ZM748.999 1179.71C752.33 1179.72 755.663 1179.73 759 1179.72V1178.72C755.663 1178.73 752.332 1178.72 749.001 1178.71L748.999 1179.71ZM769.5 1179.7C773.16 1179.68 776.82 1179.66 780.5 1179.63V1178.63C776.82 1178.66 773.15 1178.68 769.5 1178.7V1179.7ZM790.01 1179.54C793.49 1179.5 796.99 1179.45 800.51 1179.4L800.49 1178.4C796.97 1178.45 793.48 1178.5 789.99 1178.54L790.01 1179.54ZM811.51 1179.22C815.64 1179.15 819.8 1179.07 824.01 1178.98L823.99 1177.98C819.78 1178.07 815.62 1178.15 811.49 1178.22L811.51 1179.22ZM837.01 1178.68C841.3 1178.58 845.63 1178.47 850.01 1178.35L849.99 1177.35C845.6 1177.47 841.27 1177.58 836.99 1177.68L837.01 1178.68ZM862.51 1177.99C866.63 1177.87 870.8 1177.74 875.02 1177.6L874.98 1176.6C870.76 1176.74 866.6 1176.87 862.49 1176.99L862.51 1177.99ZM887.52 1177.19C891.47 1177.05 895.47 1176.91 899.52 1176.77L899.48 1175.77C895.43 1175.91 891.43 1176.05 887.48 1176.19L887.52 1177.19ZM910.52 1176.36C914.14 1176.23 917.81 1176.09 921.52 1175.95L921.48 1174.95C917.77 1175.09 914.1 1175.23 910.48 1175.37L910.52 1176.36ZM930.02 1175.62C931.02 1175.58 932.02 1175.54 933.02 1175.5L932.98 1174.5C931.98 1174.54 930.98 1174.58 929.98 1174.62L930.02 1175.62ZM932.51 1174.88C931.75 1178.06 931.11 1181.04 930.58 1183.91L931.56 1184.09C932.09 1181.24 932.73 1178.28 933.49 1175.12L932.51 1174.88ZM928.99 1196.47C928.71 1201.3 928.81 1206.17 929.34 1211.55L930.34 1211.45C929.81 1206.12 929.71 1201.3 929.99 1196.53L928.99 1196.47ZM930.96 1223.09C931.41 1225.61 931.92 1228.28 932.51 1231.1L933.49 1230.9C932.9 1228.08 932.39 1225.43 931.95 1222.91L930.96 1223.09ZM932.96 1230.5C930.78 1230.66 928.62 1230.82 926.46 1230.98L926.54 1231.98C928.69 1231.82 930.86 1231.66 933.04 1231.5L932.96 1230.5ZM915.47 1231.76C911.42 1232.03 907.42 1232.3 903.47 1232.55L903.53 1233.55C907.49 1233.3 911.49 1233.03 915.53 1232.75L915.47 1231.76ZM891.47 1233.29C888.11 1233.49 884.78 1233.68 881.47 1233.86L881.53 1234.86C884.83 1234.68 888.17 1234.49 891.53 1234.29L891.47 1233.29ZM870.48 1234.43C866.78 1234.61 863.12 1234.78 859.48 1234.94L859.52 1235.94C863.16 1235.78 866.83 1235.61 870.52 1235.43L870.48 1234.43ZM847.98 1235.41C843.96 1235.57 839.96 1235.7 835.98 1235.83L836.02 1236.83C840 1236.7 843.99 1236.56 848.02 1236.41L847.98 1235.41ZM823.99 1236.17C819.81 1236.28 815.65 1236.37 811.49 1236.44L811.51 1237.44C815.67 1237.36 819.83 1237.27 824.01 1237.17L823.99 1236.17ZM797.99 1236.64C793.5 1236.68 789 1236.72 784.5 1236.73V1237.73C789.01 1237.72 793.51 1237.68 798.01 1237.64L797.99 1236.64ZM771.54 1236.73C766.93 1236.72 762.31 1236.68 757.657 1236.64L757.647 1237.64C762.3 1237.68 766.93 1237.72 771.53 1237.73L771.54 1236.73ZM744.508 1236.46C740.045 1236.39 735.549 1236.3 731.011 1236.2L730.989 1237.2C735.529 1237.3 740.027 1237.39 744.492 1237.46L744.508 1236.46ZM719.013 1235.9C714.399 1235.78 709.736 1235.64 705.016 1235.49L704.984 1236.49C709.706 1236.64 714.37 1236.78 718.987 1236.9L719.013 1235.9ZM692.018 1235.05C687.738 1234.9 683.407 1234.73 679.02 1234.56L678.98 1235.56C683.368 1235.73 687.7 1235.9 691.982 1236.05L692.018 1235.05ZM665.521 1234.01C661.571 1233.84 657.572 1233.66 653.523 1233.48L653.477 1234.48C657.528 1234.66 661.527 1234.84 665.479 1235.01L665.521 1234.01ZM642.024 1232.95C638.075 1232.76 634.076 1232.57 630.024 1232.37L629.976 1233.37C634.028 1233.57 638.027 1233.76 641.976 1233.95L642.024 1232.95ZM618.525 1231.8C615.555 1231.65 612.555 1231.49 609.526 1231.34L609.474 1232.34C612.504 1232.49 615.504 1232.65 618.475 1232.8L618.525 1231.8ZM599.526 1230.82C597.539 1230.71 595.539 1230.61 593.526 1230.5L593.474 1231.5C595.487 1231.61 597.487 1231.71 599.474 1231.82L599.526 1230.82Z" fill="black"/>
<path d="M402.5 919C402.5 920.43 401.664 922 399.769 923.31C397.885 924.61 395.146 925.5 392 925.5C388.854 925.5 386.115 924.61 384.231 923.31C382.336 922 381.5 920.43 381.5 919C381.5 917.57 382.336 916 384.231 914.69C386.115 913.39 388.854 912.5 392 912.5C395.146 912.5 397.885 913.39 399.769 914.69C401.664 916 402.5 917.57 402.5 919Z" stroke="black" stroke-width="5"/>
<path d="M1145.5 919C1145.5 920.43 1144.66 922 1142.77 923.31C1140.88 924.61 1138.15 925.5 1135 925.5C1131.85 925.5 1129.12 924.61 1127.23 923.31C1125.34 922 1124.5 920.43 1124.5 919C1124.5 917.57 1125.34 916 1127.23 914.69C1129.12 913.39 1131.85 912.5 1135 912.5C1138.15 912.5 1140.88 913.39 1142.77 914.69C1144.66 916 1145.5 917.57 1145.5 919Z" stroke="black" stroke-width="5"/>
<path d="M392.5 919C398.538 941.43 398.14 950.71 392.5 963C384.19 990.92 387.067 1006.58 392.5 1034.5C397.287 1061.96 397.34 1075.13 392.5 1094.5C390.976 1099.58 390.931 1102.11 392.5 1106M1135 919C1143.89 936.18 1145.07 945.82 1135 963C1124.06 989.47 1125.31 1005.3 1135 1034.5C1140.34 1041.65 1139.24 1058.14 1135 1094.5C1134.35 1099.57 1134.37 1102.07 1135 1106" stroke="#8673AD" stroke-opacity="0.75" stroke-width="6"/>
<path d="M392.5 1105V1116M1135 1103.5V1116" stroke="#A58513" stroke-width="8"/>
<g filter="url(#filter0_iii_303_3)">
<path d="M689 1229.5C690.404 1215.53 691.702 1207.62 697.5 1193C703.796 1198.81 705.332 1203.53 708 1212C711.206 1200.9 714.236 1197.1 721 1193C722.413 1210.18 720.724 1217.37 717 1229.5M744.75 1211.25C747.474 1204.82 748.183 1200.91 747 1193C768.89 1193.2 774.94 1195.68 765.5 1212M744.75 1211.25C746.345 1218.8 745.765 1222.78 742.5 1229.5C769.53 1230.68 775.21 1227.64 765.5 1212M744.75 1211.25L765.5 1212M789 1229.5C787.88 1214.4 788.68 1206.28 795 1193C802.25 1196.98 805.17 1202.04 810 1212C812.6 1201.62 815.78 1197.2 826 1193C829.36 1209.22 826.96 1216.67 821.5 1229.5" stroke="white" stroke-width="3"/>
</g>
<path d="M188.818 1015.74L181.448 1014.35L188.818 1015.74ZM1327.65 1015.74L1335.15 1015.63L1327.65 1015.74ZM1293.45 1189.74L1294.86 1197.1L1298.21 1196.46L1299.93 1193.51L1293.45 1189.74ZM48.36 1067.34C74.462 1048.69 112.688 1024.28 142.867 1011.21C150.376 1007.95 157.224 1005.48 163.148 1003.96C169.173 1002.41 173.732 1001.99 176.868 1002.4C179.806 1002.78 180.712 1003.74 181.149 1004.5C181.8 1005.63 182.566 1008.42 181.448 1014.35L196.188 1017.13C197.6 1009.65 197.378 1002.64 194.158 997.03C190.723 991.05 184.876 988.32 178.812 987.52C172.946 986.76 166.255 987.67 159.418 989.43C152.479 991.21 144.85 994 136.905 997.44C105.268 1011.15 66.026 1036.28 39.64 1055.13L48.36 1067.34ZM181.448 1014.35C174.995 1048.54 172.868 1092.75 176.364 1128.59C178.106 1146.45 181.292 1162.78 186.348 1174.86C191.147 1186.34 199.106 1197.24 211.949 1197.24V1182.24C209.041 1182.24 204.653 1179.76 200.186 1169.08C195.975 1159.01 192.977 1144.4 191.293 1127.13C187.937 1092.72 189.995 1049.94 196.188 1017.13L181.448 1014.35ZM211.949 1197.24C213.865 1197.24 217.228 1197.87 222.212 1199.52C227.042 1201.12 232.849 1203.49 239.441 1206.51C252.616 1212.54 268.462 1220.95 285.086 1230.38C318.31 1249.24 354.161 1271.89 377.016 1286.99L385.286 1274.48C362.241 1259.25 326.09 1236.4 292.488 1217.34C275.698 1207.81 259.426 1199.16 245.685 1192.87C238.819 1189.73 232.469 1187.12 226.931 1185.28C221.547 1183.5 216.332 1182.24 211.949 1182.24V1197.24ZM1476.15 1055.39C1451.97 1035.98 1415.21 1008.12 1384.34 993.19C1376.58 989.44 1368.99 986.4 1361.92 984.54C1354.92 982.7 1347.93 981.88 1341.6 983.03C1335 984.24 1329.19 987.61 1325.28 993.69C1321.55 999.5 1320.03 1007.04 1320.15 1015.84L1335.15 1015.63C1335.05 1008.45 1336.35 1004.21 1337.9 1001.8C1339.28 999.65 1341.23 998.35 1344.29 997.79C1347.62 997.18 1352.2 997.5 1358.1 999.05C1363.93 1000.58 1370.57 1003.2 1377.81 1006.7C1406.97 1020.8 1442.55 1047.65 1466.76 1067.09L1476.15 1055.39ZM1320.15 1015.84C1321.39 1106.81 1297.61 1167.68 1286.97 1185.96L1299.93 1193.51C1312.09 1172.61 1336.43 1109.01 1335.15 1015.63L1320.15 1015.84ZM1292.04 1182.37C1229.75 1194.27 1185.47 1223.08 1112.13 1270.61L1120.28 1283.2C1194.14 1235.34 1235.95 1208.36 1294.86 1197.1L1292.04 1182.37Z" fill="black"/>
<path d="M758.5 1136C765.57 1141.08 765.18 1143.92 758.5 1149" stroke="#85712C"/>
<path d="M1291.5 852.5C1481.31 863.62 1267 951.38 758.5 1140C224.626 947.12 59.525 871.84 234.5 852.5" stroke="#85712C" stroke-width="5"/>
<g filter="url(#filter1_i_303_3)">
<path fill-rule="evenodd" clip-rule="evenodd" d="M719 1149H797V1183H719V1149ZM751.56 1161.91C751.723 1160.22 751.755 1158.05 751.56 1155.27C766 1153.22 768.02 1154.73 761.43 1161.91C769.26 1167.21 762.88 1167.35 749.644 1167.1C750.254 1166.89 751.21 1165.53 751.56 1161.91Z" fill="#85712C"/>
<path d="M751.56 1155.27C751.755 1158.05 751.723 1160.22 751.56 1161.91H761.43C768.02 1154.73 766 1153.22 751.56 1155.27Z" fill="#85712C"/>
<path d="M751.56 1161.91C751.21 1165.53 750.254 1166.89 749.644 1167.1C762.88 1167.35 769.26 1167.21 761.43 1161.91H751.56Z" fill="#85712C"/>
<path d="M730 1166.71L730.768 1166.07L729.172 1164.16L729.002 1166.64L730 1166.71ZM736.037 1173.96L735.269 1174.6L736.655 1176.26L737.022 1174.13L736.037 1173.96ZM751.56 1155.27L751.419 1154.28L750.498 1154.41L750.563 1155.34L751.56 1155.27ZM749.644 1167.1L749.33 1166.15L749.625 1168.1L749.644 1167.1ZM773.31 1166.71L773.92 1165.92L772.05 1164.48L772.32 1166.83L773.31 1166.71ZM780.31 1172.11L779.7 1172.9L780.6 1173.59L781.17 1172.61L780.31 1172.11ZM783.47 1166.71L784.17 1166L783.26 1165.09L782.61 1166.21L783.47 1166.71ZM719 1149V1148H718V1149H719ZM797 1149H798V1148H797V1149ZM797 1183V1184H798V1183H797ZM719 1183H718V1184H719V1183ZM729.002 1166.64C728.73 1170.64 728.96 1173.45 729.386 1175.35C729.599 1176.3 729.864 1177.05 730.154 1177.61C730.429 1178.15 730.775 1178.61 731.2 1178.87L732.25 1177.17C732.276 1177.19 732.139 1177.1 731.932 1176.7C731.74 1176.32 731.523 1175.74 731.338 1174.91C730.966 1173.25 730.734 1170.65 730.998 1166.78L729.002 1166.64ZM729.232 1167.35L735.269 1174.6L736.805 1173.32L730.768 1166.07L729.232 1167.35ZM737.022 1174.13C737.225 1172.95 737.607 1171.19 738.09 1169.75C738.333 1169.02 738.585 1168.42 738.825 1168.02C738.946 1167.83 739.038 1167.72 739.087 1167.68C739.137 1167.64 739.073 1167.71 738.912 1167.71V1165.71C738.425 1165.71 738.04 1165.94 737.774 1166.17C737.51 1166.4 737.294 1166.69 737.116 1166.99C736.761 1167.57 736.453 1168.33 736.193 1169.11C735.667 1170.69 735.264 1172.55 735.051 1173.79L737.022 1174.13ZM738.912 1167.71C738.774 1167.71 738.79 1167.66 738.992 1167.81C739.166 1167.95 739.389 1168.18 739.644 1168.5C740.151 1169.15 740.699 1170.06 741.165 1171.08C741.632 1172.09 741.994 1173.15 742.158 1174.09C742.329 1175.07 742.251 1175.72 742.062 1176.06L743.81 1177.03C744.34 1176.08 744.322 1174.85 744.128 1173.74C743.926 1172.59 743.498 1171.36 742.982 1170.24C742.466 1169.12 741.841 1168.06 741.216 1167.27C740.905 1166.87 740.572 1166.51 740.23 1166.24C739.917 1166 739.456 1165.71 738.912 1165.71V1167.71ZM750.563 1155.34C750.754 1158.08 750.721 1160.19 750.565 1161.81L752.556 1162C752.725 1160.25 752.755 1158.02 752.558 1155.2L750.563 1155.34ZM750.565 1161.81C750.396 1163.56 750.087 1164.69 749.784 1165.38C749.454 1166.14 749.215 1166.18 749.33 1166.15L749.958 1168.05C750.683 1167.81 751.227 1167.07 751.615 1166.19C752.031 1165.24 752.374 1163.88 752.556 1162L750.565 1161.81ZM751.701 1156.26C755.301 1155.75 758.08 1155.46 760.14 1155.43C761.16 1155.41 761.98 1155.46 762.61 1155.56C763.25 1155.67 763.62 1155.82 763.82 1155.95C763.98 1156.06 764.01 1156.15 764.02 1156.24C764.04 1156.38 764.01 1156.66 763.79 1157.14C763.35 1158.1 762.34 1159.44 760.69 1161.23L762.17 1162.59C763.82 1160.79 765.03 1159.25 765.61 1157.97C765.9 1157.33 766.09 1156.65 766.01 1155.99C765.92 1155.27 765.53 1154.7 764.95 1154.3C764.4 1153.93 763.7 1153.71 762.93 1153.59C762.14 1153.46 761.2 1153.41 760.11 1153.43C757.924 1153.47 755.04 1153.76 751.419 1154.28L751.701 1156.26ZM760.87 1162.74C761.83 1163.38 762.54 1163.93 763.03 1164.4C763.55 1164.88 763.76 1165.19 763.82 1165.36C763.85 1165.43 763.83 1165.43 763.84 1165.38C763.84 1165.36 763.85 1165.34 763.86 1165.32C763.87 1165.3 763.87 1165.29 763.87 1165.3C763.84 1165.33 763.67 1165.48 763.16 1165.63C762.16 1165.92 760.48 1166.08 758.14 1166.14C755.833 1166.2 752.974 1166.16 749.663 1166.1L749.625 1168.1C752.931 1168.16 755.833 1168.2 758.2 1168.14C760.53 1168.08 762.44 1167.92 763.72 1167.54C764.34 1167.36 764.97 1167.08 765.39 1166.6C765.62 1166.33 765.77 1166.01 765.82 1165.64C765.87 1165.28 765.81 1164.93 765.68 1164.63C765.45 1164.04 764.98 1163.48 764.4 1162.93C763.79 1162.37 762.99 1161.76 761.99 1161.08L760.87 1162.74ZM751.56 1162.91H761.43V1160.91H751.56V1162.91ZM772.32 1166.83C772.82 1171.25 773.55 1174.37 774.26 1176.48C774.62 1177.53 774.98 1178.35 775.31 1178.96C775.63 1179.54 775.98 1180.01 776.34 1180.29L777.56 1178.71C777.56 1178.71 777.55 1178.7 777.52 1178.66C777.49 1178.63 777.45 1178.59 777.4 1178.53C777.31 1178.4 777.2 1178.23 777.06 1177.99C776.8 1177.51 776.48 1176.81 776.15 1175.84C775.5 1173.89 774.8 1170.93 774.31 1166.6L772.32 1166.83ZM772.7 1167.5L779.7 1172.9L780.92 1171.32L773.92 1165.92L772.7 1167.5ZM781.17 1172.61L784.33 1167.22L782.61 1166.21L779.44 1171.6L781.17 1172.61ZM782.76 1167.42C783.83 1168.49 785.38 1170.23 786.54 1171.99C787.12 1172.88 787.57 1173.73 787.83 1174.47C788.1 1175.24 788.1 1175.75 787.99 1176.05L789.87 1176.74C790.22 1175.8 790.05 1174.75 789.72 1173.81C789.39 1172.85 788.83 1171.85 788.21 1170.9C786.95 1168.99 785.31 1167.13 784.17 1166L782.76 1167.42ZM719 1150H797V1148H719V1150ZM796 1149V1183H798V1149H796ZM797 1182H719V1184H797V1182ZM720 1183V1149H718V1183H720Z" fill="#978420"/>
</g>
<path d="M758.5 1136C752.807 1141.08 752.735 1143.92 758.5 1149" stroke="#85712C"/>
<path d="M1345.11 550.87C1460.22 627.2 1472.91 676.23 1345.11 781.77C1313.28 832.1 1299.99 862.5 1328.2 871.85C1067.7 886.33 944.05 954.94 756.523 1093.79C569.899 942.46 442.422 875.11 189.37 868.96C219.305 860.04 214.067 834.14 176.723 781.77C73.313 654.17 89.943 609.63 176.723 550.87C327.098 337.27 451.756 277.177 756.523 291.89C1122.19 247.078 1215.56 341.93 1345.11 550.87Z" fill="#876742" stroke="black" stroke-width="15"/>
<g filter="url(#filter2_if_303_3)">
<path d="M368 789.5C380.011 724.15 426.162 665.34 558.5 711M902.5 711C1045.51 663.35 1123.36 716.16 1124.5 789.5M785.5 1042.5C785.5 1042.5 919 980.5 930.25 963.5C941.5 946.5 1075 884.5 1075 884.5M726.5 1042.5C726.5 1042.5 610.5 983.5 599.75 963.5C589 943.5 473 884.5 473 884.5M393 447C393 447 353.5 502.5 380.5 494.5C407.5 486.5 368 542 368 542" stroke="black"/>
</g>
<g filter="url(#filter3_if_303_3)">
<path d="M368 776.5C380.011 711.15 426.162 652.34 558.5 698M902.5 698C1045.51 650.35 1123.36 703.16 1124.5 776.5M785.5 1029.5C785.5 1029.5 919 967.5 930.25 950.5C941.5 933.5 1075 871.5 1075 871.5M726.5 1029.5C726.5 1029.5 610.5 970.5 599.75 950.5C589 930.5 473 871.5 473 871.5M393 434C393 434 353.5 489.5 380.5 481.5C407.5 473.5 368 529 368 529" stroke="black"/>
</g>
<path d="M1048 404.22C1118.17 489.55 1063.03 533.65 986 550.87C918.98 466.86 983.97 418.68 1048 404.22Z" fill="white"/>
<path d="M436.5 404.22C375.714 499.25 463.415 544.5 526 550.87C594.271 451.38 507.603 412.96 436.5 404.22Z" fill="white"/>
<path d="M436.5 404.22L437.11 399.26L433.985 398.87L432.288 401.53L436.5 404.22ZM526 550.87L525.493 555.84L528.444 556.15L530.123 553.7L526 550.87ZM1048 404.22L1051.86 401.04L1049.9 398.66L1046.9 399.34L1048 404.22ZM986 550.87L982.09 553.99L984.04 556.43L987.09 555.75L986 550.87ZM432.288 401.53C416.714 425.88 410.343 447.52 411.043 466.51C411.745 485.58 419.551 501.45 431.313 514.18C454.607 539.41 493.551 552.59 525.493 555.84L526.507 545.9C495.865 542.78 459.665 530.15 438.659 507.4C428.271 496.15 421.638 482.49 421.036 466.15C420.432 449.73 425.894 430.08 440.712 406.91L432.288 401.53ZM435.89 409.18C471.164 413.52 509.118 425.13 529.894 446.96C540.102 457.68 546.152 470.85 545.817 487.11C545.48 503.53 538.617 523.65 521.877 548.04L530.123 553.7C547.518 528.35 555.424 506.35 555.815 487.32C556.21 468.12 548.95 452.48 537.137 440.07C513.871 415.62 472.939 403.66 437.11 399.26L435.89 409.18ZM1044.14 407.4C1078.67 449.39 1080.92 479.33 1067.94 500.47C1054.43 522.47 1023.19 537.43 984.91 545.99L987.09 555.75C1025.84 547.09 1060.69 531.39 1076.46 505.7C1092.76 479.16 1087.5 444.38 1051.86 401.04L1044.14 407.4ZM1046.9 399.34C1014.38 406.69 980.59 422.77 963.67 448.73C955.1 461.87 950.95 477.43 953.46 495.24C955.95 512.95 964.97 532.53 982.09 553.99L989.91 547.75C973.52 527.21 965.53 509.26 963.36 493.85C961.2 478.55 964.73 465.41 972.04 454.19C986.87 431.44 1017.59 416.21 1049.1 409.1L1046.9 399.34Z" fill="black"/>
<path d="M479 483C484.523 483 489 478.523 489 473C489 467.477 484.523 463 479 463C473.477 463 469 467.477 469 473C469 478.523 473.477 483 479 483Z" fill="#59258D"/>
<path d="M489 488C494.523 488 499 483.523 499 478C499 472.477 494.523 468 489 468C483.477 468 479 472.477 479 478C479 483.523 483.477 488 489 488Z" fill="#59258D"/>
<path d="M484 483C489.523 483 494 478.523 494 473C494 467.477 489.523 463 484 463C478.477 463 474 467.477 474 473C474 478.523 478.477 483 484 483Z" fill="#59258D"/>
<path d="M489 493C494.523 493 499 488.523 499 483C499 477.477 494.523 473 489 473C483.477 473 479 477.477 479 483C479 488.523 483.477 493 489 493Z" fill="#59258D"/>
<path d="M479 493C484.523 493 489 488.523 489 483C489 477.477 484.523 473 479 473C473.477 473 469 477.477 469 483C469 488.523 473.477 493 479 493Z" fill="#59258D"/>
<path d="M484 488C489.523 488 494 483.523 494 478C494 472.477 489.523 468 484 468C478.477 468 474 472.477 474 478C474 483.523 478.477 488 484 488Z" fill="#59258D"/>
<path d="M1016.96 478.643C1021.2 482.178 1027.51 481.604 1031.04 477.361C1034.58 473.117 1034 466.812 1029.76 463.277C1025.52 459.742 1019.21 460.316 1015.68 464.559C1012.14 468.802 1012.72 475.108 1016.96 478.643Z" fill="#59258D"/>
<path d="M1021.44 488.883C1025.68 492.418 1031.99 491.844 1035.52 487.601C1039.06 483.358 1038.48 477.052 1034.24 473.517C1030 469.982 1023.69 470.556 1020.16 474.799C1016.62 479.043 1017.2 485.348 1021.44 488.883Z" fill="#59258D"/>
<path d="M1020.8 481.843C1025.04 485.378 1031.35 484.804 1034.88 480.561C1038.42 476.317 1037.84 470.012 1033.6 466.477C1029.36 462.942 1023.05 463.516 1019.52 467.759C1015.98 472.003 1016.56 478.308 1020.8 481.843Z" fill="#59258D"/>
<path d="M1018.24 492.723C1022.48 496.258 1028.79 495.684 1032.32 491.441C1035.86 487.197 1035.28 480.892 1031.04 477.357C1026.8 473.822 1020.49 474.396 1016.96 478.639C1013.42 482.882 1014 489.188 1018.24 492.723Z" fill="#59258D"/>
<path d="M1010.56 486.323C1014.8 489.858 1021.11 489.284 1024.64 485.041C1028.18 480.797 1027.6 474.492 1023.36 470.957C1019.12 467.422 1012.81 467.996 1009.28 472.239C1005.74 476.483 1006.32 482.788 1010.56 486.323Z" fill="#59258D"/>
<path d="M1017.6 485.683C1021.84 489.218 1028.15 488.644 1031.68 484.401C1035.22 480.157 1034.64 473.852 1030.4 470.317C1026.16 466.782 1019.85 467.356 1016.32 471.599C1012.78 475.842 1013.36 482.148 1017.6 485.683Z" fill="#59258D"/>
<path d="M756.523 781.77L757.345 775.32L756.965 775.27H756.581L756.523 781.77ZM170.223 622.64V700.64H183.223V622.64H170.223ZM1338.61 622.64V700.64H1351.61V622.64H1338.61ZM755.701 788.21C775.3 790.71 791.53 793.35 804.46 796.85C817.48 800.37 826.46 804.59 832.12 809.8C837.46 814.73 840.23 820.88 840.15 829.62C840.06 838.71 836.85 850.64 829.67 866.44L841.5 871.82C848.97 855.38 853.03 841.51 853.15 829.74C853.27 817.61 849.18 807.84 840.92 800.24C832.98 792.92 821.61 788.02 807.85 784.3C794.02 780.56 777.05 777.83 757.345 775.32L755.701 788.21ZM756.581 775.27C737.078 775.09 720.815 776.11 707.613 778.98C694.389 781.85 683.746 786.69 676.025 794.51C660.469 810.28 659.289 835.45 665.193 870.22L678.01 868.04C672.089 833.18 674.735 814.33 685.279 803.64C690.608 798.24 698.583 794.24 710.373 791.68C722.186 789.12 737.333 788.09 756.464 788.27L756.581 775.27ZM750.023 781.77V1016H763.02V781.77H750.023Z" fill="black"/>
<g filter="url(#filter4_ii_303_3)">
<path d="M753.5 324C782.7 158.4 732.667 158.667 704 179.5C686.167 208.833 664.1 258.7 718.5 223.5C772.9 188.3 764.5 60.833 753.5 1.5" stroke="url(#paint3_linear_303_3)" stroke-width="15"/>
</g>
<defs>
<filter id="filter0_iii_303_3" x="684.508" y="1186.42" width="148.537" height="48.813" filterUnits="userSpaceOnUse" color-interpolation-filters="sRGB">
<feFlood flood-opacity="0" result="BackgroundImageFix"/>
<feBlend mode="normal" in="SourceGraphic" in2="BackgroundImageFix" result="shape"/>
<feColorMatrix in="SourceAlpha" type="matrix" values="0 0 0 0 0 0 0 0 0 0 0 0 0 0 0 0 0 0 127 0" result="hardAlpha"/>
<feOffset dx="-3" dy="4"/>
<feGaussianBlur stdDeviation="2"/>
<feComposite in2="hardAlpha" operator="arithmetic" k2="-1" k3="1"/>
<feColorMatrix type="matrix" values="0 0 0 0 0 0 0 0 0 0 0 0 0 0 0 0 0 0 0.25 0"/>
<feBlend mode="normal" in2="shape" result="effect1_innerShadow_303_3"/>
<feColorMatrix in="SourceAlpha" type="matrix" values="0 0 0 0 0 0 0 0 0 0 0 0 0 0 0 0 0 0 127 0" result="hardAlpha"/>
<feOffset dx="4" dy="-7"/>
<feGaussianBlur stdDeviation="2"/>
<feComposite in2="hardAlpha" operator="arithmetic" k2="-1" k3="1"/>
<feColorMatrix type="matrix" values="0 0 0 0 0 0 0 0 0 0 0 0 0 0 0 0 0 0 0.25 0"/>
<feBlend mode="normal" in2="effect1_innerShadow_303_3" result="effect2_innerShadow_303_3"/>
<feColorMatrix in="SourceAlpha" type="matrix" values="0 0 0 0 0 0 0 0 0 0 0 0 0 0 0 0 0 0 127 0" result="hardAlpha"/>
<feOffset dx="7" dy="-3"/>
<feGaussianBlur stdDeviation="2"/>
<feComposite in2="hardAlpha" operator="arithmetic" k2="-1" k3="1"/>
<feColorMatrix type="matrix" values="0 0 0 0 0 0 0 0 0 0 0 0 0 0 0 0 0 0 0.25 0"/>
<feBlend mode="normal" in2="effect2_innerShadow_303_3" result="effect3_innerShadow_303_3"/>
</filter>
<filter id="filter1_i_303_3" x="714" y="1148" width="84" height="40" filterUnits="userSpaceOnUse" color-interpolation-filters="sRGB">
<feFlood flood-opacity="0" result="BackgroundImageFix"/>
<feBlend mode="normal" in="SourceGraphic" in2="BackgroundImageFix" result="shape"/>
<feColorMatrix in="SourceAlpha" type="matrix" values="0 0 0 0 0 0 0 0 0 0 0 0 0 0 0 0 0 0 127 0" result="hardAlpha"/>
<feOffset dx="-4" dy="6"/>
<feGaussianBlur stdDeviation="2"/>
<feComposite in2="hardAlpha" operator="arithmetic" k2="-1" k3="1"/>
<feColorMatrix type="matrix" values="0 0 0 0 0 0 0 0 0 0 0 0 0 0 0 0 0 0 0.5 0"/>
<feBlend mode="normal" in2="shape" result="effect1_innerShadow_303_3"/>
</filter>
<filter id="filter2_if_303_3" x="363.508" y="442.711" width="765.492" height="604.242" filterUnits="userSpaceOnUse" color-interpolation-filters="sRGB">
<feFlood flood-opacity="0" result="BackgroundImageFix"/>
<feBlend mode="normal" in="SourceGraphic" in2="BackgroundImageFix" result="shape"/>
<feColorMatrix in="SourceAlpha" type="matrix" values="0 0 0 0 0 0 0 0 0 0 0 0 0 0 0 0 0 0 127 0" result="hardAlpha"/>
<feOffset dx="-2" dy="6"/>
<feGaussianBlur stdDeviation="2"/>
<feComposite in2="hardAlpha" operator="arithmetic" k2="-1" k3="1"/>
<feColorMatrix type="matrix" values="0 0 0 0 0 0 0 0 0 0 0 0 0 0 0 0 0 0 0.25 0"/>
<feBlend mode="normal" in2="shape" result="effect1_innerShadow_303_3"/>
<feGaussianBlur stdDeviation="2" result="effect2_foregroundBlur_303_3"/>
</filter>
<filter id="filter3_if_303_3" x="363.508" y="429.711" width="765.492" height="604.242" filterUnits="userSpaceOnUse" color-interpolation-filters="sRGB">
<feFlood flood-opacity="0" result="BackgroundImageFix"/>
<feBlend mode="normal" in="SourceGraphic" in2="BackgroundImageFix" result="shape"/>
<feColorMatrix in="SourceAlpha" type="matrix" values="0 0 0 0 0 0 0 0 0 0 0 0 0 0 0 0 0 0 127 0" result="hardAlpha"/>
<feOffset dx="-2" dy="6"/>
<feGaussianBlur stdDeviation="2"/>
<feComposite in2="hardAlpha" operator="arithmetic" k2="-1" k3="1"/>
<feColorMatrix type="matrix" values="0 0 0 0 0 0 0 0 0 0 0 0 0 0 0 0 0 0 0.25 0"/>
<feBlend mode="normal" in2="shape" result="effect1_innerShadow_303_3"/>
<feGaussianBlur stdDeviation="2" result="effect2_foregroundBlur_303_3"/>
</filter>
<filter id="filter4_ii_303_3" x="674.59" y="-3.86719" width="97.2571" height="333.169" filterUnits="userSpaceOnUse" color-interpolation-filters="sRGB">
<feFlood flood-opacity="0" result="BackgroundImageFix"/>
<feBlend mode="normal" in="SourceGraphic" in2="BackgroundImageFix" result="shape"/>
<feColorMatrix in="SourceAlpha" type="matrix" values="0 0 0 0 0 0 0 0 0 0 0 0 0 0 0 0 0 0 127 0" result="hardAlpha"/>
<feOffset dx="-2" dy="5"/>
<feGaussianBlur stdDeviation="2"/>
<feComposite in2="hardAlpha" operator="arithmetic" k2="-1" k3="1"/>
<feColorMatrix type="matrix" values="0 0 0 0 0 0 0 0 0 0 0 0 0 0 0 0 0 0 0.25 0"/>
<feBlend mode="normal" in2="shape" result="effect1_innerShadow_303_3"/>
<feColorMatrix in="SourceAlpha" type="matrix" values="0 0 0 0 0 0 0 0 0 0 0 0 0 0 0 0 0 0 127 0" result="hardAlpha"/>
<feOffset dx="2" dy="-5"/>
<feGaussianBlur stdDeviation="2"/>
<feComposite in2="hardAlpha" operator="arithmetic" k2="-1" k3="1"/>
<feColorMatrix type="matrix" values="0 0 0 0 0 0 0 0 0 0 0 0 0 0 0 0 0 0 0.25 0"/>
<feBlend mode="normal" in2="effect1_innerShadow_303_3" result="effect2_innerShadow_303_3"/>
</filter>
<radialGradient id="paint0_radial_303_3" cx="0" cy="0" r="1" gradientUnits="userSpaceOnUse" gradientTransform="translate(758 1047.49) rotate(90) scale(233.507 750)">
<stop offset="0.161458" stop-color="#F91616"/>
<stop offset="0.572917" stop-color="#F91616" stop-opacity="0.44"/>
</radialGradient>
<linearGradient id="paint1_linear_303_3" x1="758" y1="813.99" x2="758" y2="1281" gradientUnits="userSpaceOnUse">
<stop offset="0.307292" stop-color="#C8EE5B"/>
<stop offset="0.588542" stop-color="#C19133" stop-opacity="0"/>
</linearGradient>
<radialGradient id="paint2_radial_303_3" cx="0" cy="0" r="1" gradientUnits="userSpaceOnUse" gradientTransform="translate(758 1047.49) rotate(90) scale(233.507 750)">
<stop offset="0.34375" stop-color="#98DEEE" stop-opacity="0"/>
<stop offset="0.635417" stop-color="#D81EF7"/>
</radialGradient>
<linearGradient id="paint3_linear_303_3" x1="723.218" y1="1.5" x2="723.218" y2="324" gradientUnits="userSpaceOnUse">
<stop offset="0.734375"/>
<stop offset="1" stop-opacity="0"/>
</linearGradient>
</defs>
</svg>
